  0
SECTION
  2
BLOCKS
  0
ENDSEC
  0
SECTION
  2
ENTITIES
  0
LINE
  8
0
 10
13.751
 20
3
 11
19.2
 21
3
  0
LINE
  8
0
 10
19.2
 20
3
 11
19.2
 21
0
  0
LINE
  8
0
 10
19.2
 20
0
 11
24.551
 21
0
  0
LINE
  8
0
 10
24.551
 20
0
 11
24.551
 21
3
  0
LINE
  8
0
 10
24.551
 20
3
 11
30
 21
3
  0
LINE
  8
0
 10
30
 20
3
 11
30
 21
9.63635
  0
LINE
  8
0
 10
30
 20
9.63635
 11
33
 21
9.63635
  0
LINE
  8
0
 10
33
 20
9.63635
 11
33
 21
19.2237
  0
LINE
  8
0
 10
33
 20
19.2237
 11
30
 21
19.2237
  0
LINE
  8
0
 10
30
 20
19.2237
 11
30
 21
28.9091
  0
LINE
  8
0
 10
30
 20
28.9091
 11
33
 21
28.9091
  0
LINE
  8
0
 10
33
 20
28.9091
 11
33
 21
103
  0
LINE
  8
0
 10
33
 20
103
 11
24.551
 21
103
  0
LINE
  8
0
 10
24.551
 20
103
 11
24.551
 21
106
  0
LINE
  8
0
 10
24.551
 20
106
 11
19.2
 21
106
  0
LINE
  8
0
 10
19.2
 20
106
 11
19.2
 21
103
  0
LINE
  8
0
 10
19.2
 20
103
 11
13.751
 21
103
  0
LINE
  8
0
 10
13.751
 20
103
 11
13.751
 21
106
  0
LINE
  8
0
 10
13.751
 20
106
 11
8.39999
 21
106
  0
LINE
  8
0
 10
8.39999
 20
106
 11
8.39999
 21
103
  0
LINE
  8
0
 10
8.39999
 20
103
 11
3
 21
103
  0
LINE
  8
0
 10
3
 20
103
 11
3
 21
96.3146
  0
LINE
  8
0
 10
3
 20
96.3146
 11
0
 21
96.3146
  0
LINE
  8
0
 10
0
 20
96.3146
 11
0
 21
86.7273
  0
LINE
  8
0
 10
0
 20
86.7273
 11
3
 21
86.7273
  0
LINE
  8
0
 10
3
 20
86.7273
 11
3
 21
77.0419
  0
LINE
  8
0
 10
3
 20
77.0419
 11
0
 21
77.0419
  0
LINE
  8
0
 10
0
 20
77.0419
 11
0
 21
67.4545
  0
LINE
  8
0
 10
0
 20
67.4545
 11
3
 21
67.4545
  0
LINE
  8
0
 10
3
 20
67.4545
 11
3
 21
57.7692
  0
LINE
  8
0
 10
3
 20
57.7692
 11
0
 21
57.7692
  0
LINE
  8
0
 10
0
 20
57.7692
 11
0
 21
48.1818
  0
LINE
  8
0
 10
0
 20
48.1818
 11
3
 21
48.1818
  0
LINE
  8
0
 10
3
 20
48.1818
 11
3
 21
46.0636
  0
LINE
  8
0
 10
3
 20
46.0636
 11
4
 21
46.0636
  0
LINE
  8
0
 10
4
 20
46.0636
 11
4
 21
40.8636
  0
LINE
  8
0
 10
4
 20
40.8636
 11
3
 21
40.8636
  0
LINE
  8
0
 10
3
 20
40.8636
 11
3
 21
38.4964
  0
LINE
  8
0
 10
3
 20
38.4964
 11
0
 21
38.4964
  0
LINE
  8
0
 10
0
 20
38.4964
 11
0
 21
28.9091
  0
LINE
  8
0
 10
0
 20
28.9091
 11
3
 21
28.9091
  0
LINE
  8
0
 10
3
 20
28.9091
 11
3
 21
19.2237
  0
LINE
  8
0
 10
3
 20
19.2237
 11
0
 21
19.2237
  0
LINE
  8
0
 10
0
 20
19.2237
 11
0
 21
9.63635
  0
LINE
  8
0
 10
0
 20
9.63635
 11
3
 21
9.63635
  0
LINE
  8
0
 10
3
 20
9.63635
 11
3
 21
3
  0
LINE
  8
0
 10
3
 20
3
 11
8.39999
 21
3
  0
LINE
  8
0
 10
8.39999
 20
3
 11
8.39999
 21
0
  0
LINE
  8
0
 10
8.39999
 20
0
 11
13.751
 21
0
  0
LINE
  8
0
 10
13.751
 20
0
 11
13.751
 21
3
  0
LINE
  8
0
 10
17
 20
70.6667
 11
17
 21
94
  0
LINE
  8
0
 10
17
 20
94
 11
19
 21
94
  0
LINE
  8
0
 10
19
 20
94
 11
19
 21
70.6667
  0
LINE
  8
0
 10
19
 20
70.6667
 11
17
 21
70.6667
  0
LINE
  8
0
 10
21
 20
70.6667
 11
21
 21
94
  0
LINE
  8
0
 10
21
 20
94
 11
23
 21
94
  0
LINE
  8
0
 10
23
 20
94
 11
23
 21
70.6667
  0
LINE
  8
0
 10
23
 20
70.6667
 11
21
 21
70.6667
  0
LINE
  8
0
 10
9
 20
70.6667
 11
9
 21
94
  0
LINE
  8
0
 10
9
 20
94
 11
11
 21
94
  0
LINE
  8
0
 10
11
 20
94
 11
11
 21
70.6667
  0
LINE
  8
0
 10
11
 20
70.6667
 11
9
 21
70.6667
  0
LINE
  8
0
 10
13
 20
70.6667
 11
13
 21
94
  0
LINE
  8
0
 10
13
 20
94
 11
15
 21
94
  0
LINE
  8
0
 10
15
 20
94
 11
15
 21
70.6667
  0
LINE
  8
0
 10
15
 20
70.6667
 11
13
 21
70.6667
  0
LINE
  8
0
 10
21
 20
41.3333
 11
21
 21
64.6667
  0
LINE
  8
0
 10
21
 20
64.6667
 11
23
 21
64.6667
  0
LINE
  8
0
 10
23
 20
64.6667
 11
23
 21
41.3333
  0
LINE
  8
0
 10
23
 20
41.3333
 11
21
 21
41.3333
  0
LINE
  8
0
 10
17
 20
41.3333
 11
17
 21
64.6667
  0
LINE
  8
0
 10
17
 20
64.6667
 11
19
 21
64.6667
  0
LINE
  8
0
 10
19
 20
64.6667
 11
19
 21
41.3333
  0
LINE
  8
0
 10
19
 20
41.3333
 11
17
 21
41.3333
  0
LINE
  8
0
 10
9
 20
41.3333
 11
9
 21
64.6667
  0
LINE
  8
0
 10
9
 20
64.6667
 11
11
 21
64.6667
  0
LINE
  8
0
 10
11
 20
64.6667
 11
11
 21
41.3333
  0
LINE
  8
0
 10
11
 20
41.3333
 11
9
 21
41.3333
  0
LINE
  8
0
 10
13
 20
41.3333
 11
13
 21
64.6667
  0
LINE
  8
0
 10
13
 20
64.6667
 11
15
 21
64.6667
  0
LINE
  8
0
 10
15
 20
64.6667
 11
15
 21
41.3333
  0
LINE
  8
0
 10
15
 20
41.3333
 11
13
 21
41.3333
  0
LINE
  8
0
 10
21
 20
12
 11
21
 21
35.3333
  0
LINE
  8
0
 10
21
 20
35.3333
 11
23
 21
35.3333
  0
LINE
  8
0
 10
23
 20
35.3333
 11
23
 21
12
  0
LINE
  8
0
 10
23
 20
12
 11
21
 21
12
  0
LINE
  8
0
 10
17
 20
12
 11
17
 21
35.3333
  0
LINE
  8
0
 10
17
 20
35.3333
 11
19
 21
35.3333
  0
LINE
  8
0
 10
19
 20
35.3333
 11
19
 21
12
  0
LINE
  8
0
 10
19
 20
12
 11
17
 21
12
  0
LINE
  8
0
 10
9
 20
12
 11
9
 21
35.3333
  0
LINE
  8
0
 10
9
 20
35.3333
 11
11
 21
35.3333
  0
LINE
  8
0
 10
11
 20
35.3333
 11
11
 21
12
  0
LINE
  8
0
 10
11
 20
12
 11
9
 21
12
  0
LINE
  8
0
 10
13
 20
12
 11
13
 21
35.3333
  0
LINE
  8
0
 10
13
 20
35.3333
 11
15
 21
35.3333
  0
LINE
  8
0
 10
15
 20
35.3333
 11
15
 21
12
  0
LINE
  8
0
 10
15
 20
12
 11
13
 21
12
  0
ENDSEC
  0
SECTION
  2
OBJECTS
  0
DICTIONARY
  0
ENDSEC
  0
EOF
