  0
SECTION
  2
BLOCKS
  0
ENDSEC
  0
SECTION
  2
ENTITIES
  0
LINE
  8
0
 10
19.2727
 20
-30
 11
28.9581
 21
-30
  0
LINE
  8
0
 10
28.9581
 20
-30
 11
28.9581
 21
-33
  0
LINE
  8
0
 10
28.9581
 20
-33
 11
38.5455
 21
-33
  0
LINE
  8
0
 10
38.5455
 20
-33
 11
38.5455
 21
-30
  0
LINE
  8
0
 10
38.5455
 20
-30
 11
48.2308
 21
-30
  0
LINE
  8
0
 10
48.2308
 20
-30
 11
48.2308
 21
-33
  0
LINE
  8
0
 10
48.2308
 20
-33
 11
57.8182
 21
-33
  0
LINE
  8
0
 10
57.8182
 20
-33
 11
57.8182
 21
-30
  0
LINE
  8
0
 10
57.8182
 20
-30
 11
67.5035
 21
-30
  0
LINE
  8
0
 10
67.5035
 20
-30
 11
67.5035
 21
-33
  0
LINE
  8
0
 10
67.5035
 20
-33
 11
77.0909
 21
-33
  0
LINE
  8
0
 10
77.0909
 20
-33
 11
77.0909
 21
-30
  0
LINE
  8
0
 10
77.0909
 20
-30
 11
86.7763
 21
-30
  0
LINE
  8
0
 10
86.7763
 20
-30
 11
86.7763
 21
-33
  0
LINE
  8
0
 10
86.7763
 20
-33
 11
96.3636
 21
-33
  0
LINE
  8
0
 10
96.3636
 20
-33
 11
96.3636
 21
-30
  0
LINE
  8
0
 10
96.3636
 20
-30
 11
103
 21
-30
  0
LINE
  8
0
 10
103
 20
-30
 11
103
 21
-29.951
  0
LINE
  8
0
 10
103
 20
-29.951
 11
106
 21
-29.951
  0
LINE
  8
0
 10
106
 20
-29.951
 11
106
 21
-24.6
  0
LINE
  8
0
 10
106
 20
-24.6
 11
103
 21
-24.6
  0
LINE
  8
0
 10
103
 20
-24.6
 11
103
 21
-19.151
  0
LINE
  8
0
 10
103
 20
-19.151
 11
106
 21
-19.151
  0
LINE
  8
0
 10
106
 20
-19.151
 11
106
 21
-13.8
  0
LINE
  8
0
 10
106
 20
-13.8
 11
103
 21
-13.8
  0
LINE
  8
0
 10
103
 20
-13.8
 11
103
 21
-8.351
  0
LINE
  8
0
 10
103
 20
-8.351
 11
106
 21
-8.351
  0
LINE
  8
0
 10
106
 20
-8.351
 11
106
 21
-3
  0
LINE
  8
0
 10
106
 20
-3
 11
96.3636
 21
-3
  0
LINE
  8
0
 10
96.3636
 20
-3
 11
96.3636
 21
0
  0
LINE
  8
0
 10
96.3636
 20
0
 11
86.7763
 21
0
  0
LINE
  8
0
 10
86.7763
 20
0
 11
86.7763
 21
-3
  0
LINE
  8
0
 10
86.7763
 20
-3
 11
77.0909
 21
-3
  0
LINE
  8
0
 10
77.0909
 20
-3
 11
77.0909
 21
0
  0
LINE
  8
0
 10
77.0909
 20
0
 11
67.5035
 21
0
  0
LINE
  8
0
 10
67.5035
 20
0
 11
67.5035
 21
-3
  0
LINE
  8
0
 10
67.5035
 20
-3
 11
57.8182
 21
-3
  0
LINE
  8
0
 10
57.8182
 20
-3
 11
57.8182
 21
0
  0
LINE
  8
0
 10
57.8182
 20
0
 11
48.2308
 21
0
  0
LINE
  8
0
 10
48.2308
 20
0
 11
48.2308
 21
-3
  0
LINE
  8
0
 10
48.2308
 20
-3
 11
46.0636
 21
-3
  0
LINE
  8
0
 10
46.0636
 20
-3
 11
46.0636
 21
-4
  0
LINE
  8
0
 10
46.0636
 20
-4
 11
40.8636
 21
-4
  0
LINE
  8
0
 10
40.8636
 20
-4
 11
40.8636
 21
-3
  0
LINE
  8
0
 10
40.8636
 20
-3
 11
38.5455
 21
-3
  0
LINE
  8
0
 10
38.5455
 20
-3
 11
38.5455
 21
0
  0
LINE
  8
0
 10
38.5455
 20
0
 11
28.9581
 21
0
  0
LINE
  8
0
 10
28.9581
 20
0
 11
28.9581
 21
-3
  0
LINE
  8
0
 10
28.9581
 20
-3
 11
19.2727
 21
-3
  0
LINE
  8
0
 10
19.2727
 20
-3
 11
19.2727
 21
0
  0
LINE
  8
0
 10
19.2727
 20
0
 11
9.68536
 21
0
  0
LINE
  8
0
 10
9.68536
 20
0
 11
9.68536
 21
-3
  0
LINE
  8
0
 10
9.68536
 20
-3
 11
0
 21
-3
  0
LINE
  8
0
 10
0
 20
-3
 11
0
 21
-8.351
  0
LINE
  8
0
 10
0
 20
-8.351
 11
3
 21
-8.351
  0
LINE
  8
0
 10
3
 20
-8.351
 11
3
 21
-13.8
  0
LINE
  8
0
 10
3
 20
-13.8
 11
0
 21
-13.8
  0
LINE
  8
0
 10
0
 20
-13.8
 11
0
 21
-19.151
  0
LINE
  8
0
 10
0
 20
-19.151
 11
3
 21
-19.151
  0
LINE
  8
0
 10
3
 20
-19.151
 11
3
 21
-24.6
  0
LINE
  8
0
 10
3
 20
-24.6
 11
0
 21
-24.6
  0
LINE
  8
0
 10
0
 20
-24.6
 11
0
 21
-29.951
  0
LINE
  8
0
 10
0
 20
-29.951
 11
3
 21
-29.951
  0
LINE
  8
0
 10
3
 20
-29.951
 11
3
 21
-30
  0
LINE
  8
0
 10
3
 20
-30
 11
9.68536
 21
-30
  0
LINE
  8
0
 10
9.68536
 20
-30
 11
9.68536
 21
-33
  0
LINE
  8
0
 10
9.68536
 20
-33
 11
19.2727
 21
-33
  0
LINE
  8
0
 10
19.2727
 20
-33
 11
19.2727
 21
-30
  0
LINE
  8
0
 10
70.6667
 20
-11
 11
70.6667
 21
-9
  0
LINE
  8
0
 10
70.6667
 20
-9
 11
94
 21
-9
  0
LINE
  8
0
 10
94
 20
-9
 11
94
 21
-11
  0
LINE
  8
0
 10
94
 20
-11
 11
70.6667
 21
-11
  0
LINE
  8
0
 10
12
 20
-11
 11
12
 21
-9
  0
LINE
  8
0
 10
12
 20
-9
 11
35.3333
 21
-9
  0
LINE
  8
0
 10
35.3333
 20
-9
 11
35.3333
 21
-11
  0
LINE
  8
0
 10
35.3333
 20
-11
 11
12
 21
-11
  0
LINE
  8
0
 10
41.3333
 20
-11
 11
41.3333
 21
-9
  0
LINE
  8
0
 10
41.3333
 20
-9
 11
64.6667
 21
-9
  0
LINE
  8
0
 10
64.6667
 20
-9
 11
64.6667
 21
-11
  0
LINE
  8
0
 10
64.6667
 20
-11
 11
41.3333
 21
-11
  0
LINE
  8
0
 10
70.6667
 20
-15
 11
70.6667
 21
-13
  0
LINE
  8
0
 10
70.6667
 20
-13
 11
94
 21
-13
  0
LINE
  8
0
 10
94
 20
-13
 11
94
 21
-15
  0
LINE
  8
0
 10
94
 20
-15
 11
70.6667
 21
-15
  0
LINE
  8
0
 10
41.3333
 20
-15
 11
41.3333
 21
-13
  0
LINE
  8
0
 10
41.3333
 20
-13
 11
64.6667
 21
-13
  0
LINE
  8
0
 10
64.6667
 20
-13
 11
64.6667
 21
-15
  0
LINE
  8
0
 10
64.6667
 20
-15
 11
41.3333
 21
-15
  0
LINE
  8
0
 10
12
 20
-15
 11
12
 21
-13
  0
LINE
  8
0
 10
12
 20
-13
 11
35.3333
 21
-13
  0
LINE
  8
0
 10
35.3333
 20
-13
 11
35.3333
 21
-15
  0
LINE
  8
0
 10
35.3333
 20
-15
 11
12
 21
-15
  0
LINE
  8
0
 10
12
 20
-19
 11
12
 21
-17
  0
LINE
  8
0
 10
12
 20
-17
 11
35.3333
 21
-17
  0
LINE
  8
0
 10
35.3333
 20
-17
 11
35.3333
 21
-19
  0
LINE
  8
0
 10
35.3333
 20
-19
 11
12
 21
-19
  0
LINE
  8
0
 10
70.6667
 20
-19
 11
70.6667
 21
-17
  0
LINE
  8
0
 10
70.6667
 20
-17
 11
94
 21
-17
  0
LINE
  8
0
 10
94
 20
-17
 11
94
 21
-19
  0
LINE
  8
0
 10
94
 20
-19
 11
70.6667
 21
-19
  0
LINE
  8
0
 10
41.3333
 20
-19
 11
41.3333
 21
-17
  0
LINE
  8
0
 10
41.3333
 20
-17
 11
64.6667
 21
-17
  0
LINE
  8
0
 10
64.6667
 20
-17
 11
64.6667
 21
-19
  0
LINE
  8
0
 10
64.6667
 20
-19
 11
41.3333
 21
-19
  0
LINE
  8
0
 10
41.3333
 20
-23
 11
41.3333
 21
-21
  0
LINE
  8
0
 10
41.3333
 20
-21
 11
64.6667
 21
-21
  0
LINE
  8
0
 10
64.6667
 20
-21
 11
64.6667
 21
-23
  0
LINE
  8
0
 10
64.6667
 20
-23
 11
41.3333
 21
-23
  0
LINE
  8
0
 10
12
 20
-23
 11
12
 21
-21
  0
LINE
  8
0
 10
12
 20
-21
 11
35.3333
 21
-21
  0
LINE
  8
0
 10
35.3333
 20
-21
 11
35.3333
 21
-23
  0
LINE
  8
0
 10
35.3333
 20
-23
 11
12
 21
-23
  0
LINE
  8
0
 10
70.6667
 20
-23
 11
70.6667
 21
-21
  0
LINE
  8
0
 10
70.6667
 20
-21
 11
94
 21
-21
  0
LINE
  8
0
 10
94
 20
-21
 11
94
 21
-23
  0
LINE
  8
0
 10
94
 20
-23
 11
70.6667
 21
-23
  0
ENDSEC
  0
SECTION
  2
OBJECTS
  0
DICTIONARY
  0
ENDSEC
  0
EOF
