  0
SECTION
  2
BLOCKS
  0
ENDSEC
  0
SECTION
  2
ENTITIES
  0
LINE
  8
0
 10
9.63635
 20
3
 11
19.3217
 21
3
  0
LINE
  8
0
 10
19.3217
 20
3
 11
19.3217
 21
0
  0
LINE
  8
0
 10
19.3217
 20
0
 11
28.9091
 21
0
  0
LINE
  8
0
 10
28.9091
 20
0
 11
28.9091
 21
3
  0
LINE
  8
0
 10
28.9091
 20
3
 11
38.5945
 21
3
  0
LINE
  8
0
 10
38.5945
 20
3
 11
38.5945
 21
0
  0
LINE
  8
0
 10
38.5945
 20
0
 11
48.1818
 21
0
  0
LINE
  8
0
 10
48.1818
 20
0
 11
48.1818
 21
3
  0
LINE
  8
0
 10
48.1818
 20
3
 11
57.8672
 21
3
  0
LINE
  8
0
 10
57.8672
 20
3
 11
57.8672
 21
0
  0
LINE
  8
0
 10
57.8672
 20
0
 11
67.4545
 21
0
  0
LINE
  8
0
 10
67.4545
 20
0
 11
67.4545
 21
3
  0
LINE
  8
0
 10
67.4545
 20
3
 11
77.1399
 21
3
  0
LINE
  8
0
 10
77.1399
 20
3
 11
77.1399
 21
0
  0
LINE
  8
0
 10
77.1399
 20
0
 11
86.7273
 21
0
  0
LINE
  8
0
 10
86.7273
 20
0
 11
86.7273
 21
3
  0
LINE
  8
0
 10
86.7273
 20
3
 11
96.4126
 21
3
  0
LINE
  8
0
 10
96.4126
 20
3
 11
96.4126
 21
0
  0
LINE
  8
0
 10
96.4126
 20
0
 11
106
 21
0
  0
LINE
  8
0
 10
106
 20
0
 11
106
 21
9.58736
  0
LINE
  8
0
 10
106
 20
9.58736
 11
103
 21
9.58736
  0
LINE
  8
0
 10
103
 20
9.58736
 11
103
 21
19.2727
  0
LINE
  8
0
 10
103
 20
19.2727
 11
106
 21
19.2727
  0
LINE
  8
0
 10
106
 20
19.2727
 11
106
 21
28.8601
  0
LINE
  8
0
 10
106
 20
28.8601
 11
103
 21
28.8601
  0
LINE
  8
0
 10
103
 20
28.8601
 11
103
 21
38.5455
  0
LINE
  8
0
 10
103
 20
38.5455
 11
106
 21
38.5455
  0
LINE
  8
0
 10
106
 20
38.5455
 11
106
 21
48.1328
  0
LINE
  8
0
 10
106
 20
48.1328
 11
103
 21
48.1328
  0
LINE
  8
0
 10
103
 20
48.1328
 11
103
 21
57.8182
  0
LINE
  8
0
 10
103
 20
57.8182
 11
106
 21
57.8182
  0
LINE
  8
0
 10
106
 20
57.8182
 11
106
 21
67.4055
  0
LINE
  8
0
 10
106
 20
67.4055
 11
103
 21
67.4055
  0
LINE
  8
0
 10
103
 20
67.4055
 11
103
 21
77.0909
  0
LINE
  8
0
 10
103
 20
77.0909
 11
106
 21
77.0909
  0
LINE
  8
0
 10
106
 20
77.0909
 11
106
 21
86.6783
  0
LINE
  8
0
 10
106
 20
86.6783
 11
103
 21
86.6783
  0
LINE
  8
0
 10
103
 20
86.6783
 11
103
 21
96.3636
  0
LINE
  8
0
 10
103
 20
96.3636
 11
106
 21
96.3636
  0
LINE
  8
0
 10
106
 20
96.3636
 11
106
 21
106
  0
LINE
  8
0
 10
106
 20
106
 11
96.4126
 21
106
  0
LINE
  8
0
 10
96.4126
 20
106
 11
96.4126
 21
103
  0
LINE
  8
0
 10
96.4126
 20
103
 11
86.7273
 21
103
  0
LINE
  8
0
 10
86.7273
 20
103
 11
86.7273
 21
106
  0
LINE
  8
0
 10
86.7273
 20
106
 11
77.1399
 21
106
  0
LINE
  8
0
 10
77.1399
 20
106
 11
77.1399
 21
103
  0
LINE
  8
0
 10
77.1399
 20
103
 11
67.4545
 21
103
  0
LINE
  8
0
 10
67.4545
 20
103
 11
67.4545
 21
106
  0
LINE
  8
0
 10
67.4545
 20
106
 11
57.8672
 21
106
  0
LINE
  8
0
 10
57.8672
 20
106
 11
57.8672
 21
103
  0
LINE
  8
0
 10
57.8672
 20
103
 11
48.1818
 21
103
  0
LINE
  8
0
 10
48.1818
 20
103
 11
48.1818
 21
106
  0
LINE
  8
0
 10
48.1818
 20
106
 11
38.5945
 21
106
  0
LINE
  8
0
 10
38.5945
 20
106
 11
38.5945
 21
103
  0
LINE
  8
0
 10
38.5945
 20
103
 11
28.9091
 21
103
  0
LINE
  8
0
 10
28.9091
 20
103
 11
28.9091
 21
106
  0
LINE
  8
0
 10
28.9091
 20
106
 11
19.3217
 21
106
  0
LINE
  8
0
 10
19.3217
 20
106
 11
19.3217
 21
103
  0
LINE
  8
0
 10
19.3217
 20
103
 11
9.63635
 21
103
  0
LINE
  8
0
 10
9.63635
 20
103
 11
9.63635
 21
106
  0
LINE
  8
0
 10
9.63635
 20
106
 11
0.048996
 21
106
  0
LINE
  8
0
 10
0.048996
 20
106
 11
0.048996
 21
105.951
  0
LINE
  8
0
 10
0.048996
 20
105.951
 11
0
 21
105.951
  0
LINE
  8
0
 10
0
 20
105.951
 11
0
 21
96.3636
  0
LINE
  8
0
 10
0
 20
96.3636
 11
3
 21
96.3636
  0
LINE
  8
0
 10
3
 20
96.3636
 11
3
 21
86.6783
  0
LINE
  8
0
 10
3
 20
86.6783
 11
0
 21
86.6783
  0
LINE
  8
0
 10
0
 20
86.6783
 11
0
 21
77.0909
  0
LINE
  8
0
 10
0
 20
77.0909
 11
3
 21
77.0909
  0
LINE
  8
0
 10
3
 20
77.0909
 11
3
 21
67.4055
  0
LINE
  8
0
 10
3
 20
67.4055
 11
0
 21
67.4055
  0
LINE
  8
0
 10
0
 20
67.4055
 11
0
 21
57.8182
  0
LINE
  8
0
 10
0
 20
57.8182
 11
3
 21
57.8182
  0
LINE
  8
0
 10
3
 20
57.8182
 11
3
 21
48.1328
  0
LINE
  8
0
 10
3
 20
48.1328
 11
0
 21
48.1328
  0
LINE
  8
0
 10
0
 20
48.1328
 11
0
 21
38.5455
  0
LINE
  8
0
 10
0
 20
38.5455
 11
3
 21
38.5455
  0
LINE
  8
0
 10
3
 20
38.5455
 11
3
 21
28.8601
  0
LINE
  8
0
 10
3
 20
28.8601
 11
0
 21
28.8601
  0
LINE
  8
0
 10
0
 20
28.8601
 11
0
 21
19.2727
  0
LINE
  8
0
 10
0
 20
19.2727
 11
3
 21
19.2727
  0
LINE
  8
0
 10
3
 20
19.2727
 11
3
 21
9.58736
  0
LINE
  8
0
 10
3
 20
9.58736
 11
0
 21
9.58736
  0
LINE
  8
0
 10
0
 20
9.58736
 11
0
 21
0
  0
LINE
  8
0
 10
0
 20
0
 11
9.63635
 21
0
  0
LINE
  8
0
 10
9.63635
 20
0
 11
9.63635
 21
3
  0
LINE
  8
0
 10
93.0328
 20
98.0067
 11
92.8969
 21
98.0269
  0
LINE
  8
0
 10
92.8969
 20
98.0269
 11
92.7636
 21
98.0603
  0
LINE
  8
0
 10
92.7636
 20
98.0603
 11
92.6342
 21
98.1066
  0
LINE
  8
0
 10
92.6342
 20
98.1066
 11
92.51
 21
98.1653
  0
LINE
  8
0
 10
92.51
 20
98.1653
 11
92.3922
 21
98.2359
  0
LINE
  8
0
 10
92.3922
 20
98.2359
 11
92.2818
 21
98.3178
  0
LINE
  8
0
 10
92.2818
 20
98.3178
 11
92.1801
 21
98.41
  0
LINE
  8
0
 10
92.1801
 20
98.41
 11
92.0878
 21
98.5118
  0
LINE
  8
0
 10
92.0878
 20
98.5118
 11
92.0059
 21
98.6222
  0
LINE
  8
0
 10
92.0059
 20
98.6222
 11
91.9353
 21
98.74
  0
LINE
  8
0
 10
91.9353
 20
98.74
 11
91.8766
 21
98.8642
  0
LINE
  8
0
 10
91.8766
 20
98.8642
 11
91.8303
 21
98.9936
  0
LINE
  8
0
 10
91.8303
 20
98.9936
 11
91.7969
 21
99.1269
  0
LINE
  8
0
 10
91.7969
 20
99.1269
 11
91.7767
 21
99.2628
  0
LINE
  8
0
 10
91.7767
 20
99.2628
 11
91.77
 21
99.4
  0
LINE
  8
0
 10
91.77
 20
99.4
 11
91.7767
 21
99.5372
  0
LINE
  8
0
 10
91.7767
 20
99.5372
 11
91.7969
 21
99.6731
  0
LINE
  8
0
 10
91.7969
 20
99.6731
 11
91.8303
 21
99.8064
  0
LINE
  8
0
 10
91.8303
 20
99.8064
 11
91.8766
 21
99.9357
  0
LINE
  8
0
 10
91.8766
 20
99.9357
 11
91.9353
 21
100.06
  0
LINE
  8
0
 10
91.9353
 20
100.06
 11
92.0059
 21
100.178
  0
LINE
  8
0
 10
92.0059
 20
100.178
 11
92.0878
 21
100.288
  0
LINE
  8
0
 10
92.0878
 20
100.288
 11
92.1801
 21
100.39
  0
LINE
  8
0
 10
92.1801
 20
100.39
 11
92.2818
 21
100.482
  0
LINE
  8
0
 10
92.2818
 20
100.482
 11
92.3922
 21
100.564
  0
LINE
  8
0
 10
92.3922
 20
100.564
 11
92.51
 21
100.635
  0
LINE
  8
0
 10
92.51
 20
100.635
 11
92.6342
 21
100.693
  0
LINE
  8
0
 10
92.6342
 20
100.693
 11
92.7636
 21
100.74
  0
LINE
  8
0
 10
92.7636
 20
100.74
 11
92.8969
 21
100.773
  0
LINE
  8
0
 10
92.8969
 20
100.773
 11
93.0328
 21
100.793
  0
LINE
  8
0
 10
93.0328
 20
100.793
 11
93.17
 21
100.8
  0
LINE
  8
0
 10
93.17
 20
100.8
 11
93.3072
 21
100.793
  0
LINE
  8
0
 10
93.3072
 20
100.793
 11
93.4431
 21
100.773
  0
LINE
  8
0
 10
93.4431
 20
100.773
 11
93.5764
 21
100.74
  0
LINE
  8
0
 10
93.5764
 20
100.74
 11
93.7057
 21
100.693
  0
LINE
  8
0
 10
93.7057
 20
100.693
 11
93.83
 21
100.635
  0
LINE
  8
0
 10
93.83
 20
100.635
 11
93.9478
 21
100.564
  0
LINE
  8
0
 10
93.9478
 20
100.564
 11
94.0582
 21
100.482
  0
LINE
  8
0
 10
94.0582
 20
100.482
 11
94.1599
 21
100.39
  0
LINE
  8
0
 10
94.1599
 20
100.39
 11
94.2522
 21
100.288
  0
LINE
  8
0
 10
94.2522
 20
100.288
 11
94.3341
 21
100.178
  0
LINE
  8
0
 10
94.3341
 20
100.178
 11
94.4047
 21
100.06
  0
LINE
  8
0
 10
94.4047
 20
100.06
 11
94.4634
 21
99.9357
  0
LINE
  8
0
 10
94.4634
 20
99.9357
 11
94.5097
 21
99.8064
  0
LINE
  8
0
 10
94.5097
 20
99.8064
 11
94.5431
 21
99.6731
  0
LINE
  8
0
 10
94.5431
 20
99.6731
 11
94.5632
 21
99.5372
  0
LINE
  8
0
 10
94.5632
 20
99.5372
 11
94.57
 21
99.4
  0
LINE
  8
0
 10
94.57
 20
99.4
 11
94.5632
 21
99.2628
  0
LINE
  8
0
 10
94.5632
 20
99.2628
 11
94.5431
 21
99.1269
  0
LINE
  8
0
 10
94.5431
 20
99.1269
 11
94.5097
 21
98.9936
  0
LINE
  8
0
 10
94.5097
 20
98.9936
 11
94.4634
 21
98.8642
  0
LINE
  8
0
 10
94.4634
 20
98.8642
 11
94.4047
 21
98.74
  0
LINE
  8
0
 10
94.4047
 20
98.74
 11
94.3341
 21
98.6222
  0
LINE
  8
0
 10
94.3341
 20
98.6222
 11
94.2522
 21
98.5118
  0
LINE
  8
0
 10
94.2522
 20
98.5118
 11
94.1599
 21
98.41
  0
LINE
  8
0
 10
94.1599
 20
98.41
 11
94.0582
 21
98.3178
  0
LINE
  8
0
 10
94.0582
 20
98.3178
 11
93.9478
 21
98.2359
  0
LINE
  8
0
 10
93.9478
 20
98.2359
 11
93.83
 21
98.1653
  0
LINE
  8
0
 10
93.83
 20
98.1653
 11
93.7057
 21
98.1066
  0
LINE
  8
0
 10
93.7057
 20
98.1066
 11
93.5764
 21
98.0603
  0
LINE
  8
0
 10
93.5764
 20
98.0603
 11
93.4431
 21
98.0269
  0
LINE
  8
0
 10
93.4431
 20
98.0269
 11
93.3072
 21
98.0067
  0
LINE
  8
0
 10
93.3072
 20
98.0067
 11
93.17
 21
98
  0
LINE
  8
0
 10
93.17
 20
98
 11
93.0328
 21
98.0067
  0
LINE
  8
0
 10
72.6828
 20
98.0067
 11
72.5469
 21
98.0269
  0
LINE
  8
0
 10
72.5469
 20
98.0269
 11
72.4136
 21
98.0603
  0
LINE
  8
0
 10
72.4136
 20
98.0603
 11
72.2842
 21
98.1066
  0
LINE
  8
0
 10
72.2842
 20
98.1066
 11
72.16
 21
98.1653
  0
LINE
  8
0
 10
72.16
 20
98.1653
 11
72.0422
 21
98.2359
  0
LINE
  8
0
 10
72.0422
 20
98.2359
 11
71.9318
 21
98.3178
  0
LINE
  8
0
 10
71.9318
 20
98.3178
 11
71.83
 21
98.41
  0
LINE
  8
0
 10
71.83
 20
98.41
 11
71.7378
 21
98.5118
  0
LINE
  8
0
 10
71.7378
 20
98.5118
 11
71.6559
 21
98.6222
  0
LINE
  8
0
 10
71.6559
 20
98.6222
 11
71.5853
 21
98.74
  0
LINE
  8
0
 10
71.5853
 20
98.74
 11
71.5266
 21
98.8642
  0
LINE
  8
0
 10
71.5266
 20
98.8642
 11
71.4803
 21
98.9936
  0
LINE
  8
0
 10
71.4803
 20
98.9936
 11
71.4469
 21
99.1269
  0
LINE
  8
0
 10
71.4469
 20
99.1269
 11
71.4267
 21
99.2628
  0
LINE
  8
0
 10
71.4267
 20
99.2628
 11
71.42
 21
99.4
  0
LINE
  8
0
 10
71.42
 20
99.4
 11
71.4267
 21
99.5372
  0
LINE
  8
0
 10
71.4267
 20
99.5372
 11
71.4469
 21
99.6731
  0
LINE
  8
0
 10
71.4469
 20
99.6731
 11
71.4803
 21
99.8064
  0
LINE
  8
0
 10
71.4803
 20
99.8064
 11
71.5266
 21
99.9357
  0
LINE
  8
0
 10
71.5266
 20
99.9357
 11
71.5853
 21
100.06
  0
LINE
  8
0
 10
71.5853
 20
100.06
 11
71.6559
 21
100.178
  0
LINE
  8
0
 10
71.6559
 20
100.178
 11
71.7378
 21
100.288
  0
LINE
  8
0
 10
71.7378
 20
100.288
 11
71.83
 21
100.39
  0
LINE
  8
0
 10
71.83
 20
100.39
 11
71.9318
 21
100.482
  0
LINE
  8
0
 10
71.9318
 20
100.482
 11
72.0422
 21
100.564
  0
LINE
  8
0
 10
72.0422
 20
100.564
 11
72.16
 21
100.635
  0
LINE
  8
0
 10
72.16
 20
100.635
 11
72.2842
 21
100.693
  0
LINE
  8
0
 10
72.2842
 20
100.693
 11
72.4136
 21
100.74
  0
LINE
  8
0
 10
72.4136
 20
100.74
 11
72.5469
 21
100.773
  0
LINE
  8
0
 10
72.5469
 20
100.773
 11
72.6828
 21
100.793
  0
LINE
  8
0
 10
72.6828
 20
100.793
 11
72.82
 21
100.8
  0
LINE
  8
0
 10
72.82
 20
100.8
 11
72.9572
 21
100.793
  0
LINE
  8
0
 10
72.9572
 20
100.793
 11
73.0931
 21
100.773
  0
LINE
  8
0
 10
73.0931
 20
100.773
 11
73.2264
 21
100.74
  0
LINE
  8
0
 10
73.2264
 20
100.74
 11
73.3558
 21
100.693
  0
LINE
  8
0
 10
73.3558
 20
100.693
 11
73.4799
 21
100.635
  0
LINE
  8
0
 10
73.4799
 20
100.635
 11
73.5978
 21
100.564
  0
LINE
  8
0
 10
73.5978
 20
100.564
 11
73.7081
 21
100.482
  0
LINE
  8
0
 10
73.7081
 20
100.482
 11
73.81
 21
100.39
  0
LINE
  8
0
 10
73.81
 20
100.39
 11
73.9022
 21
100.288
  0
LINE
  8
0
 10
73.9022
 20
100.288
 11
73.9841
 21
100.178
  0
LINE
  8
0
 10
73.9841
 20
100.178
 11
74.0547
 21
100.06
  0
LINE
  8
0
 10
74.0547
 20
100.06
 11
74.1134
 21
99.9357
  0
LINE
  8
0
 10
74.1134
 20
99.9357
 11
74.1597
 21
99.8064
  0
LINE
  8
0
 10
74.1597
 20
99.8064
 11
74.1931
 21
99.6731
  0
LINE
  8
0
 10
74.1931
 20
99.6731
 11
74.2133
 21
99.5372
  0
LINE
  8
0
 10
74.2133
 20
99.5372
 11
74.22
 21
99.4
  0
LINE
  8
0
 10
74.22
 20
99.4
 11
74.2133
 21
99.2628
  0
LINE
  8
0
 10
74.2133
 20
99.2628
 11
74.1931
 21
99.1269
  0
LINE
  8
0
 10
74.1931
 20
99.1269
 11
74.1597
 21
98.9936
  0
LINE
  8
0
 10
74.1597
 20
98.9936
 11
74.1134
 21
98.8642
  0
LINE
  8
0
 10
74.1134
 20
98.8642
 11
74.0547
 21
98.74
  0
LINE
  8
0
 10
74.0547
 20
98.74
 11
73.9841
 21
98.6222
  0
LINE
  8
0
 10
73.9841
 20
98.6222
 11
73.9022
 21
98.5118
  0
LINE
  8
0
 10
73.9022
 20
98.5118
 11
73.81
 21
98.41
  0
LINE
  8
0
 10
73.81
 20
98.41
 11
73.7081
 21
98.3178
  0
LINE
  8
0
 10
73.7081
 20
98.3178
 11
73.5978
 21
98.2359
  0
LINE
  8
0
 10
73.5978
 20
98.2359
 11
73.4799
 21
98.1653
  0
LINE
  8
0
 10
73.4799
 20
98.1653
 11
73.3558
 21
98.1066
  0
LINE
  8
0
 10
73.3558
 20
98.1066
 11
73.2264
 21
98.0603
  0
LINE
  8
0
 10
73.2264
 20
98.0603
 11
73.0931
 21
98.0269
  0
LINE
  8
0
 10
73.0931
 20
98.0269
 11
72.9572
 21
98.0067
  0
LINE
  8
0
 10
72.9572
 20
98.0067
 11
72.82
 21
98
  0
LINE
  8
0
 10
72.82
 20
98
 11
72.6828
 21
98.0067
  0
LINE
  8
0
 10
50.5
 20
40
 11
50.5
 21
95
  0
LINE
  8
0
 10
50.5
 20
95
 11
52.5
 21
95
  0
LINE
  8
0
 10
52.5
 20
95
 11
52.5
 21
40
  0
LINE
  8
0
 10
52.5
 20
40
 11
50.5
 21
40
  0
LINE
  8
0
 10
25.5
 20
40
 11
25.5
 21
95
  0
LINE
  8
0
 10
25.5
 20
95
 11
27.5
 21
95
  0
LINE
  8
0
 10
27.5
 20
95
 11
27.5
 21
40
  0
LINE
  8
0
 10
27.5
 20
40
 11
25.5
 21
40
  0
LINE
  8
0
 10
30.5
 20
40
 11
30.5
 21
95
  0
LINE
  8
0
 10
30.5
 20
95
 11
32.5
 21
95
  0
LINE
  8
0
 10
32.5
 20
95
 11
32.5
 21
40
  0
LINE
  8
0
 10
32.5
 20
40
 11
30.5
 21
40
  0
LINE
  8
0
 10
20.5
 20
40
 11
20.5
 21
95
  0
LINE
  8
0
 10
20.5
 20
95
 11
22.5
 21
95
  0
LINE
  8
0
 10
22.5
 20
95
 11
22.5
 21
40
  0
LINE
  8
0
 10
22.5
 20
40
 11
20.5
 21
40
  0
LINE
  8
0
 10
45.5
 20
40
 11
45.5
 21
95
  0
LINE
  8
0
 10
45.5
 20
95
 11
47.5
 21
95
  0
LINE
  8
0
 10
47.5
 20
95
 11
47.5
 21
40
  0
LINE
  8
0
 10
47.5
 20
40
 11
45.5
 21
40
  0
LINE
  8
0
 10
40.5
 20
40
 11
40.5
 21
95
  0
LINE
  8
0
 10
40.5
 20
95
 11
42.5
 21
95
  0
LINE
  8
0
 10
42.5
 20
95
 11
42.5
 21
40
  0
LINE
  8
0
 10
42.5
 20
40
 11
40.5
 21
40
  0
LINE
  8
0
 10
35.5
 20
40
 11
35.5
 21
95
  0
LINE
  8
0
 10
35.5
 20
95
 11
37.5
 21
95
  0
LINE
  8
0
 10
37.5
 20
95
 11
37.5
 21
40
  0
LINE
  8
0
 10
37.5
 20
40
 11
35.5
 21
40
  0
LINE
  8
0
 10
15.5
 20
40
 11
15.5
 21
95
  0
LINE
  8
0
 10
15.5
 20
95
 11
17.5
 21
95
  0
LINE
  8
0
 10
17.5
 20
95
 11
17.5
 21
40
  0
LINE
  8
0
 10
17.5
 20
40
 11
15.5
 21
40
  0
LINE
  8
0
 10
10.5
 20
40
 11
10.5
 21
95
  0
LINE
  8
0
 10
10.5
 20
95
 11
12.5
 21
95
  0
LINE
  8
0
 10
12.5
 20
95
 11
12.5
 21
40
  0
LINE
  8
0
 10
12.5
 20
40
 11
10.5
 21
40
  0
LINE
  8
0
 10
7.26277
 20
86.5067
 11
7.12686
 21
86.5269
  0
LINE
  8
0
 10
7.12686
 20
86.5269
 11
6.99359
 21
86.5603
  0
LINE
  8
0
 10
6.99359
 20
86.5603
 11
6.86424
 21
86.6066
  0
LINE
  8
0
 10
6.86424
 20
86.6066
 11
6.74004
 21
86.6653
  0
LINE
  8
0
 10
6.74004
 20
86.6653
 11
6.62219
 21
86.7359
  0
LINE
  8
0
 10
6.62219
 20
86.7359
 11
6.51184
 21
86.8178
  0
LINE
  8
0
 10
6.51184
 20
86.8178
 11
6.41005
 21
86.91
  0
LINE
  8
0
 10
6.41005
 20
86.91
 11
6.31778
 21
87.0118
  0
LINE
  8
0
 10
6.31778
 20
87.0118
 11
6.23593
 21
87.1222
  0
LINE
  8
0
 10
6.23593
 20
87.1222
 11
6.1653
 21
87.24
  0
LINE
  8
0
 10
6.1653
 20
87.24
 11
6.10657
 21
87.3642
  0
LINE
  8
0
 10
6.10657
 20
87.3642
 11
6.06027
 21
87.4936
  0
LINE
  8
0
 10
6.06027
 20
87.4936
 11
6.0269
 21
87.6269
  0
LINE
  8
0
 10
6.0269
 20
87.6269
 11
6.00673
 21
87.7628
  0
LINE
  8
0
 10
6.00673
 20
87.7628
 11
6
 21
87.9
  0
LINE
  8
0
 10
6
 20
87.9
 11
6.00673
 21
88.0372
  0
LINE
  8
0
 10
6.00673
 20
88.0372
 11
6.0269
 21
88.1731
  0
LINE
  8
0
 10
6.0269
 20
88.1731
 11
6.06027
 21
88.3064
  0
LINE
  8
0
 10
6.06027
 20
88.3064
 11
6.10657
 21
88.4357
  0
LINE
  8
0
 10
6.10657
 20
88.4357
 11
6.1653
 21
88.56
  0
LINE
  8
0
 10
6.1653
 20
88.56
 11
6.23593
 21
88.6778
  0
LINE
  8
0
 10
6.23593
 20
88.6778
 11
6.31778
 21
88.7881
  0
LINE
  8
0
 10
6.31778
 20
88.7881
 11
6.41005
 21
88.8899
  0
LINE
  8
0
 10
6.41005
 20
88.8899
 11
6.51184
 21
88.9822
  0
LINE
  8
0
 10
6.51184
 20
88.9822
 11
6.62219
 21
89.0641
  0
LINE
  8
0
 10
6.62219
 20
89.0641
 11
6.74004
 21
89.1347
  0
LINE
  8
0
 10
6.74004
 20
89.1347
 11
6.86424
 21
89.1934
  0
LINE
  8
0
 10
6.86424
 20
89.1934
 11
6.99359
 21
89.2397
  0
LINE
  8
0
 10
6.99359
 20
89.2397
 11
7.12686
 21
89.2731
  0
LINE
  8
0
 10
7.12686
 20
89.2731
 11
7.26277
 21
89.2933
  0
LINE
  8
0
 10
7.26277
 20
89.2933
 11
7.39999
 21
89.3
  0
LINE
  8
0
 10
7.39999
 20
89.3
 11
7.53722
 21
89.2933
  0
LINE
  8
0
 10
7.53722
 20
89.2933
 11
7.67313
 21
89.2731
  0
LINE
  8
0
 10
7.67313
 20
89.2731
 11
7.8064
 21
89.2397
  0
LINE
  8
0
 10
7.8064
 20
89.2397
 11
7.93575
 21
89.1934
  0
LINE
  8
0
 10
7.93575
 20
89.1934
 11
8.05995
 21
89.1347
  0
LINE
  8
0
 10
8.05995
 20
89.1347
 11
8.1778
 21
89.0641
  0
LINE
  8
0
 10
8.1778
 20
89.0641
 11
8.28815
 21
88.9822
  0
LINE
  8
0
 10
8.28815
 20
88.9822
 11
8.38994
 21
88.8899
  0
LINE
  8
0
 10
8.38994
 20
88.8899
 11
8.48221
 21
88.7881
  0
LINE
  8
0
 10
8.48221
 20
88.7881
 11
8.56406
 21
88.6778
  0
LINE
  8
0
 10
8.56406
 20
88.6778
 11
8.63469
 21
88.56
  0
LINE
  8
0
 10
8.63469
 20
88.56
 11
8.69342
 21
88.4357
  0
LINE
  8
0
 10
8.69342
 20
88.4357
 11
8.73972
 21
88.3064
  0
LINE
  8
0
 10
8.73972
 20
88.3064
 11
8.77309
 21
88.1731
  0
LINE
  8
0
 10
8.77309
 20
88.1731
 11
8.79326
 21
88.0372
  0
LINE
  8
0
 10
8.79326
 20
88.0372
 11
8.79999
 21
87.9
  0
LINE
  8
0
 10
8.79999
 20
87.9
 11
8.79326
 21
87.7628
  0
LINE
  8
0
 10
8.79326
 20
87.7628
 11
8.77309
 21
87.6269
  0
LINE
  8
0
 10
8.77309
 20
87.6269
 11
8.73972
 21
87.4936
  0
LINE
  8
0
 10
8.73972
 20
87.4936
 11
8.69342
 21
87.3642
  0
LINE
  8
0
 10
8.69342
 20
87.3642
 11
8.63469
 21
87.24
  0
LINE
  8
0
 10
8.63469
 20
87.24
 11
8.56406
 21
87.1222
  0
LINE
  8
0
 10
8.56406
 20
87.1222
 11
8.48221
 21
87.0118
  0
LINE
  8
0
 10
8.48221
 20
87.0118
 11
8.38994
 21
86.91
  0
LINE
  8
0
 10
8.38994
 20
86.91
 11
8.28815
 21
86.8178
  0
LINE
  8
0
 10
8.28815
 20
86.8178
 11
8.1778
 21
86.7359
  0
LINE
  8
0
 10
8.1778
 20
86.7359
 11
8.05995
 21
86.6653
  0
LINE
  8
0
 10
8.05995
 20
86.6653
 11
7.93575
 21
86.6066
  0
LINE
  8
0
 10
7.93575
 20
86.6066
 11
7.8064
 21
86.5603
  0
LINE
  8
0
 10
7.8064
 20
86.5603
 11
7.67313
 21
86.5269
  0
LINE
  8
0
 10
7.67313
 20
86.5269
 11
7.53722
 21
86.5067
  0
LINE
  8
0
 10
7.53722
 20
86.5067
 11
7.39999
 21
86.5
  0
LINE
  8
0
 10
7.39999
 20
86.5
 11
7.26277
 21
86.5067
  0
LINE
  8
0
 10
55.4628
 20
85.2067
 11
55.3269
 21
85.2269
  0
LINE
  8
0
 10
55.3269
 20
85.2269
 11
55.1936
 21
85.2603
  0
LINE
  8
0
 10
55.1936
 20
85.2603
 11
55.0642
 21
85.3066
  0
LINE
  8
0
 10
55.0642
 20
85.3066
 11
54.94
 21
85.3653
  0
LINE
  8
0
 10
54.94
 20
85.3653
 11
54.8222
 21
85.4359
  0
LINE
  8
0
 10
54.8222
 20
85.4359
 11
54.7118
 21
85.5178
  0
LINE
  8
0
 10
54.7118
 20
85.5178
 11
54.61
 21
85.61
  0
LINE
  8
0
 10
54.61
 20
85.61
 11
54.5178
 21
85.7118
  0
LINE
  8
0
 10
54.5178
 20
85.7118
 11
54.4359
 21
85.8222
  0
LINE
  8
0
 10
54.4359
 20
85.8222
 11
54.3653
 21
85.94
  0
LINE
  8
0
 10
54.3653
 20
85.94
 11
54.3066
 21
86.0642
  0
LINE
  8
0
 10
54.3066
 20
86.0642
 11
54.2603
 21
86.1936
  0
LINE
  8
0
 10
54.2603
 20
86.1936
 11
54.2269
 21
86.3269
  0
LINE
  8
0
 10
54.2269
 20
86.3269
 11
54.2067
 21
86.4628
  0
LINE
  8
0
 10
54.2067
 20
86.4628
 11
54.2
 21
86.6
  0
LINE
  8
0
 10
54.2
 20
86.6
 11
54.2067
 21
86.7372
  0
LINE
  8
0
 10
54.2067
 20
86.7372
 11
54.2269
 21
86.8731
  0
LINE
  8
0
 10
54.2269
 20
86.8731
 11
54.2603
 21
87.0064
  0
LINE
  8
0
 10
54.2603
 20
87.0064
 11
54.3066
 21
87.1358
  0
LINE
  8
0
 10
54.3066
 20
87.1358
 11
54.3653
 21
87.2599
  0
LINE
  8
0
 10
54.3653
 20
87.2599
 11
54.4359
 21
87.3778
  0
LINE
  8
0
 10
54.4359
 20
87.3778
 11
54.5178
 21
87.4881
  0
LINE
  8
0
 10
54.5178
 20
87.4881
 11
54.61
 21
87.59
  0
LINE
  8
0
 10
54.61
 20
87.59
 11
54.7118
 21
87.6822
  0
LINE
  8
0
 10
54.7118
 20
87.6822
 11
54.8222
 21
87.7641
  0
LINE
  8
0
 10
54.8222
 20
87.7641
 11
54.94
 21
87.8347
  0
LINE
  8
0
 10
54.94
 20
87.8347
 11
55.0642
 21
87.8934
  0
LINE
  8
0
 10
55.0642
 20
87.8934
 11
55.1936
 21
87.9397
  0
LINE
  8
0
 10
55.1936
 20
87.9397
 11
55.3269
 21
87.9731
  0
LINE
  8
0
 10
55.3269
 20
87.9731
 11
55.4628
 21
87.9933
  0
LINE
  8
0
 10
55.4628
 20
87.9933
 11
55.6
 21
88
  0
LINE
  8
0
 10
55.6
 20
88
 11
55.7372
 21
87.9933
  0
LINE
  8
0
 10
55.7372
 20
87.9933
 11
55.8731
 21
87.9731
  0
LINE
  8
0
 10
55.8731
 20
87.9731
 11
56.0064
 21
87.9397
  0
LINE
  8
0
 10
56.0064
 20
87.9397
 11
56.1358
 21
87.8934
  0
LINE
  8
0
 10
56.1358
 20
87.8934
 11
56.2599
 21
87.8347
  0
LINE
  8
0
 10
56.2599
 20
87.8347
 11
56.3778
 21
87.7641
  0
LINE
  8
0
 10
56.3778
 20
87.7641
 11
56.4881
 21
87.6822
  0
LINE
  8
0
 10
56.4881
 20
87.6822
 11
56.59
 21
87.59
  0
LINE
  8
0
 10
56.59
 20
87.59
 11
56.6822
 21
87.4881
  0
LINE
  8
0
 10
56.6822
 20
87.4881
 11
56.7641
 21
87.3778
  0
LINE
  8
0
 10
56.7641
 20
87.3778
 11
56.8347
 21
87.2599
  0
LINE
  8
0
 10
56.8347
 20
87.2599
 11
56.8934
 21
87.1358
  0
LINE
  8
0
 10
56.8934
 20
87.1358
 11
56.9397
 21
87.0064
  0
LINE
  8
0
 10
56.9397
 20
87.0064
 11
56.9731
 21
86.8731
  0
LINE
  8
0
 10
56.9731
 20
86.8731
 11
56.9933
 21
86.7372
  0
LINE
  8
0
 10
56.9933
 20
86.7372
 11
57
 21
86.6
  0
LINE
  8
0
 10
57
 20
86.6
 11
56.9933
 21
86.4628
  0
LINE
  8
0
 10
56.9933
 20
86.4628
 11
56.9731
 21
86.3269
  0
LINE
  8
0
 10
56.9731
 20
86.3269
 11
56.9397
 21
86.1936
  0
LINE
  8
0
 10
56.9397
 20
86.1936
 11
56.8934
 21
86.0642
  0
LINE
  8
0
 10
56.8934
 20
86.0642
 11
56.8347
 21
85.94
  0
LINE
  8
0
 10
56.8347
 20
85.94
 11
56.7641
 21
85.8222
  0
LINE
  8
0
 10
56.7641
 20
85.8222
 11
56.6822
 21
85.7118
  0
LINE
  8
0
 10
56.6822
 20
85.7118
 11
56.59
 21
85.61
  0
LINE
  8
0
 10
56.59
 20
85.61
 11
56.4881
 21
85.5178
  0
LINE
  8
0
 10
56.4881
 20
85.5178
 11
56.3778
 21
85.4359
  0
LINE
  8
0
 10
56.3778
 20
85.4359
 11
56.2599
 21
85.3653
  0
LINE
  8
0
 10
56.2599
 20
85.3653
 11
56.1358
 21
85.3066
  0
LINE
  8
0
 10
56.1358
 20
85.3066
 11
56.0064
 21
85.2603
  0
LINE
  8
0
 10
56.0064
 20
85.2603
 11
55.8731
 21
85.2269
  0
LINE
  8
0
 10
55.8731
 20
85.2269
 11
55.7372
 21
85.2067
  0
LINE
  8
0
 10
55.7372
 20
85.2067
 11
55.6
 21
85.2
  0
LINE
  8
0
 10
55.6
 20
85.2
 11
55.4628
 21
85.2067
  0
LINE
  8
0
 10
63
 20
48
 11
63
 21
50
  0
LINE
  8
0
 10
63
 20
50
 11
98
 21
50
  0
LINE
  8
0
 10
98
 20
50
 11
98
 21
48
  0
LINE
  8
0
 10
98
 20
48
 11
63
 21
48
  0
LINE
  8
0
 10
63
 20
43
 11
63
 21
45
  0
LINE
  8
0
 10
63
 20
45
 11
98
 21
45
  0
LINE
  8
0
 10
98
 20
45
 11
98
 21
43
  0
LINE
  8
0
 10
98
 20
43
 11
63
 21
43
  0
LINE
  8
0
 10
63
 20
38
 11
63
 21
40
  0
LINE
  8
0
 10
63
 20
40
 11
98
 21
40
  0
LINE
  8
0
 10
98
 20
40
 11
98
 21
38
  0
LINE
  8
0
 10
98
 20
38
 11
63
 21
38
  0
LINE
  8
0
 10
12.3628
 20
34.4067
 11
12.2269
 21
34.4269
  0
LINE
  8
0
 10
12.2269
 20
34.4269
 11
12.0936
 21
34.4603
  0
LINE
  8
0
 10
12.0936
 20
34.4603
 11
11.9642
 21
34.5066
  0
LINE
  8
0
 10
11.9642
 20
34.5066
 11
11.84
 21
34.5653
  0
LINE
  8
0
 10
11.84
 20
34.5653
 11
11.7222
 21
34.6359
  0
LINE
  8
0
 10
11.7222
 20
34.6359
 11
11.6118
 21
34.7178
  0
LINE
  8
0
 10
11.6118
 20
34.7178
 11
11.51
 21
34.81
  0
LINE
  8
0
 10
11.51
 20
34.81
 11
11.4178
 21
34.9118
  0
LINE
  8
0
 10
11.4178
 20
34.9118
 11
11.3359
 21
35.0222
  0
LINE
  8
0
 10
11.3359
 20
35.0222
 11
11.2653
 21
35.14
  0
LINE
  8
0
 10
11.2653
 20
35.14
 11
11.2066
 21
35.2642
  0
LINE
  8
0
 10
11.2066
 20
35.2642
 11
11.1603
 21
35.3936
  0
LINE
  8
0
 10
11.1603
 20
35.3936
 11
11.1269
 21
35.5269
  0
LINE
  8
0
 10
11.1269
 20
35.5269
 11
11.1067
 21
35.6628
  0
LINE
  8
0
 10
11.1067
 20
35.6628
 11
11.1
 21
35.8
  0
LINE
  8
0
 10
11.1
 20
35.8
 11
11.1067
 21
35.9372
  0
LINE
  8
0
 10
11.1067
 20
35.9372
 11
11.1269
 21
36.0731
  0
LINE
  8
0
 10
11.1269
 20
36.0731
 11
11.1603
 21
36.2064
  0
LINE
  8
0
 10
11.1603
 20
36.2064
 11
11.2066
 21
36.3358
  0
LINE
  8
0
 10
11.2066
 20
36.3358
 11
11.2653
 21
36.4599
  0
LINE
  8
0
 10
11.2653
 20
36.4599
 11
11.3359
 21
36.5778
  0
LINE
  8
0
 10
11.3359
 20
36.5778
 11
11.4178
 21
36.6881
  0
LINE
  8
0
 10
11.4178
 20
36.6881
 11
11.51
 21
36.7899
  0
LINE
  8
0
 10
11.51
 20
36.7899
 11
11.6118
 21
36.8822
  0
LINE
  8
0
 10
11.6118
 20
36.8822
 11
11.7222
 21
36.9641
  0
LINE
  8
0
 10
11.7222
 20
36.9641
 11
11.84
 21
37.0347
  0
LINE
  8
0
 10
11.84
 20
37.0347
 11
11.9642
 21
37.0934
  0
LINE
  8
0
 10
11.9642
 20
37.0934
 11
12.0936
 21
37.1397
  0
LINE
  8
0
 10
12.0936
 20
37.1397
 11
12.2269
 21
37.1731
  0
LINE
  8
0
 10
12.2269
 20
37.1731
 11
12.3628
 21
37.1933
  0
LINE
  8
0
 10
12.3628
 20
37.1933
 11
12.5
 21
37.2
  0
LINE
  8
0
 10
12.5
 20
37.2
 11
12.6372
 21
37.1933
  0
LINE
  8
0
 10
12.6372
 20
37.1933
 11
12.7731
 21
37.1731
  0
LINE
  8
0
 10
12.7731
 20
37.1731
 11
12.9064
 21
37.1397
  0
LINE
  8
0
 10
12.9064
 20
37.1397
 11
13.0358
 21
37.0934
  0
LINE
  8
0
 10
13.0358
 20
37.0934
 11
13.1599
 21
37.0347
  0
LINE
  8
0
 10
13.1599
 20
37.0347
 11
13.2778
 21
36.9641
  0
LINE
  8
0
 10
13.2778
 20
36.9641
 11
13.3881
 21
36.8822
  0
LINE
  8
0
 10
13.3881
 20
36.8822
 11
13.4899
 21
36.7899
  0
LINE
  8
0
 10
13.4899
 20
36.7899
 11
13.5822
 21
36.6881
  0
LINE
  8
0
 10
13.5822
 20
36.6881
 11
13.664
 21
36.5778
  0
LINE
  8
0
 10
13.664
 20
36.5778
 11
13.7347
 21
36.4599
  0
LINE
  8
0
 10
13.7347
 20
36.4599
 11
13.7934
 21
36.3358
  0
LINE
  8
0
 10
13.7934
 20
36.3358
 11
13.8397
 21
36.2064
  0
LINE
  8
0
 10
13.8397
 20
36.2064
 11
13.8731
 21
36.0731
  0
LINE
  8
0
 10
13.8731
 20
36.0731
 11
13.8932
 21
35.9372
  0
LINE
  8
0
 10
13.8932
 20
35.9372
 11
13.9
 21
35.8
  0
LINE
  8
0
 10
13.9
 20
35.8
 11
13.8932
 21
35.6628
  0
LINE
  8
0
 10
13.8932
 20
35.6628
 11
13.8731
 21
35.5269
  0
LINE
  8
0
 10
13.8731
 20
35.5269
 11
13.8397
 21
35.3936
  0
LINE
  8
0
 10
13.8397
 20
35.3936
 11
13.7934
 21
35.2642
  0
LINE
  8
0
 10
13.7934
 20
35.2642
 11
13.7347
 21
35.14
  0
LINE
  8
0
 10
13.7347
 20
35.14
 11
13.664
 21
35.0222
  0
LINE
  8
0
 10
13.664
 20
35.0222
 11
13.5822
 21
34.9118
  0
LINE
  8
0
 10
13.5822
 20
34.9118
 11
13.4899
 21
34.81
  0
LINE
  8
0
 10
13.4899
 20
34.81
 11
13.3881
 21
34.7178
  0
LINE
  8
0
 10
13.3881
 20
34.7178
 11
13.2778
 21
34.6359
  0
LINE
  8
0
 10
13.2778
 20
34.6359
 11
13.1599
 21
34.5653
  0
LINE
  8
0
 10
13.1599
 20
34.5653
 11
13.0358
 21
34.5066
  0
LINE
  8
0
 10
13.0358
 20
34.5066
 11
12.9064
 21
34.4603
  0
LINE
  8
0
 10
12.9064
 20
34.4603
 11
12.7731
 21
34.4269
  0
LINE
  8
0
 10
12.7731
 20
34.4269
 11
12.6372
 21
34.4067
  0
LINE
  8
0
 10
12.6372
 20
34.4067
 11
12.5
 21
34.4
  0
LINE
  8
0
 10
12.5
 20
34.4
 11
12.3628
 21
34.4067
  0
LINE
  8
0
 10
40.2628
 20
34.4067
 11
40.1269
 21
34.4269
  0
LINE
  8
0
 10
40.1269
 20
34.4269
 11
39.9936
 21
34.4603
  0
LINE
  8
0
 10
39.9936
 20
34.4603
 11
39.8642
 21
34.5066
  0
LINE
  8
0
 10
39.8642
 20
34.5066
 11
39.74
 21
34.5653
  0
LINE
  8
0
 10
39.74
 20
34.5653
 11
39.6222
 21
34.6359
  0
LINE
  8
0
 10
39.6222
 20
34.6359
 11
39.5118
 21
34.7178
  0
LINE
  8
0
 10
39.5118
 20
34.7178
 11
39.41
 21
34.81
  0
LINE
  8
0
 10
39.41
 20
34.81
 11
39.3178
 21
34.9118
  0
LINE
  8
0
 10
39.3178
 20
34.9118
 11
39.2359
 21
35.0222
  0
LINE
  8
0
 10
39.2359
 20
35.0222
 11
39.1653
 21
35.14
  0
LINE
  8
0
 10
39.1653
 20
35.14
 11
39.1066
 21
35.2642
  0
LINE
  8
0
 10
39.1066
 20
35.2642
 11
39.0603
 21
35.3936
  0
LINE
  8
0
 10
39.0603
 20
35.3936
 11
39.0269
 21
35.5269
  0
LINE
  8
0
 10
39.0269
 20
35.5269
 11
39.0067
 21
35.6628
  0
LINE
  8
0
 10
39.0067
 20
35.6628
 11
39
 21
35.8
  0
LINE
  8
0
 10
39
 20
35.8
 11
39.0067
 21
35.9372
  0
LINE
  8
0
 10
39.0067
 20
35.9372
 11
39.0269
 21
36.0731
  0
LINE
  8
0
 10
39.0269
 20
36.0731
 11
39.0603
 21
36.2064
  0
LINE
  8
0
 10
39.0603
 20
36.2064
 11
39.1066
 21
36.3358
  0
LINE
  8
0
 10
39.1066
 20
36.3358
 11
39.1653
 21
36.4599
  0
LINE
  8
0
 10
39.1653
 20
36.4599
 11
39.2359
 21
36.5778
  0
LINE
  8
0
 10
39.2359
 20
36.5778
 11
39.3178
 21
36.6881
  0
LINE
  8
0
 10
39.3178
 20
36.6881
 11
39.41
 21
36.7899
  0
LINE
  8
0
 10
39.41
 20
36.7899
 11
39.5118
 21
36.8822
  0
LINE
  8
0
 10
39.5118
 20
36.8822
 11
39.6222
 21
36.9641
  0
LINE
  8
0
 10
39.6222
 20
36.9641
 11
39.74
 21
37.0347
  0
LINE
  8
0
 10
39.74
 20
37.0347
 11
39.8642
 21
37.0934
  0
LINE
  8
0
 10
39.8642
 20
37.0934
 11
39.9936
 21
37.1397
  0
LINE
  8
0
 10
39.9936
 20
37.1397
 11
40.1269
 21
37.1731
  0
LINE
  8
0
 10
40.1269
 20
37.1731
 11
40.2628
 21
37.1933
  0
LINE
  8
0
 10
40.2628
 20
37.1933
 11
40.4
 21
37.2
  0
LINE
  8
0
 10
40.4
 20
37.2
 11
40.5372
 21
37.1933
  0
LINE
  8
0
 10
40.5372
 20
37.1933
 11
40.6731
 21
37.1731
  0
LINE
  8
0
 10
40.6731
 20
37.1731
 11
40.8064
 21
37.1397
  0
LINE
  8
0
 10
40.8064
 20
37.1397
 11
40.9357
 21
37.0934
  0
LINE
  8
0
 10
40.9357
 20
37.0934
 11
41.06
 21
37.0347
  0
LINE
  8
0
 10
41.06
 20
37.0347
 11
41.1778
 21
36.9641
  0
LINE
  8
0
 10
41.1778
 20
36.9641
 11
41.2881
 21
36.8822
  0
LINE
  8
0
 10
41.2881
 20
36.8822
 11
41.3899
 21
36.7899
  0
LINE
  8
0
 10
41.3899
 20
36.7899
 11
41.4822
 21
36.6881
  0
LINE
  8
0
 10
41.4822
 20
36.6881
 11
41.5641
 21
36.5778
  0
LINE
  8
0
 10
41.5641
 20
36.5778
 11
41.6347
 21
36.4599
  0
LINE
  8
0
 10
41.6347
 20
36.4599
 11
41.6934
 21
36.3358
  0
LINE
  8
0
 10
41.6934
 20
36.3358
 11
41.7397
 21
36.2064
  0
LINE
  8
0
 10
41.7397
 20
36.2064
 11
41.7731
 21
36.0731
  0
LINE
  8
0
 10
41.7731
 20
36.0731
 11
41.7933
 21
35.9372
  0
LINE
  8
0
 10
41.7933
 20
35.9372
 11
41.8
 21
35.8
  0
LINE
  8
0
 10
41.8
 20
35.8
 11
41.7933
 21
35.6628
  0
LINE
  8
0
 10
41.7933
 20
35.6628
 11
41.7731
 21
35.5269
  0
LINE
  8
0
 10
41.7731
 20
35.5269
 11
41.7397
 21
35.3936
  0
LINE
  8
0
 10
41.7397
 20
35.3936
 11
41.6934
 21
35.2642
  0
LINE
  8
0
 10
41.6934
 20
35.2642
 11
41.6347
 21
35.14
  0
LINE
  8
0
 10
41.6347
 20
35.14
 11
41.5641
 21
35.0222
  0
LINE
  8
0
 10
41.5641
 20
35.0222
 11
41.4822
 21
34.9118
  0
LINE
  8
0
 10
41.4822
 20
34.9118
 11
41.3899
 21
34.81
  0
LINE
  8
0
 10
41.3899
 20
34.81
 11
41.2881
 21
34.7178
  0
LINE
  8
0
 10
41.2881
 20
34.7178
 11
41.1778
 21
34.6359
  0
LINE
  8
0
 10
41.1778
 20
34.6359
 11
41.06
 21
34.5653
  0
LINE
  8
0
 10
41.06
 20
34.5653
 11
40.9357
 21
34.5066
  0
LINE
  8
0
 10
40.9357
 20
34.5066
 11
40.8064
 21
34.4603
  0
LINE
  8
0
 10
40.8064
 20
34.4603
 11
40.6731
 21
34.4269
  0
LINE
  8
0
 10
40.6731
 20
34.4269
 11
40.5372
 21
34.4067
  0
LINE
  8
0
 10
40.5372
 20
34.4067
 11
40.4
 21
34.4
  0
LINE
  8
0
 10
40.4
 20
34.4
 11
40.2628
 21
34.4067
  0
LINE
  8
0
 10
63
 20
33
 11
63
 21
35
  0
LINE
  8
0
 10
63
 20
35
 11
98
 21
35
  0
LINE
  8
0
 10
98
 20
35
 11
98
 21
33
  0
LINE
  8
0
 10
98
 20
33
 11
63
 21
33
  0
LINE
  8
0
 10
63
 20
28
 11
63
 21
30
  0
LINE
  8
0
 10
63
 20
30
 11
98
 21
30
  0
LINE
  8
0
 10
98
 20
30
 11
98
 21
28
  0
LINE
  8
0
 10
98
 20
28
 11
63
 21
28
  0
LINE
  8
0
 10
63
 20
23
 11
63
 21
25
  0
LINE
  8
0
 10
63
 20
25
 11
98
 21
25
  0
LINE
  8
0
 10
98
 20
25
 11
98
 21
23
  0
LINE
  8
0
 10
98
 20
23
 11
63
 21
23
  0
LINE
  8
0
 10
63
 20
18
 11
63
 21
20
  0
LINE
  8
0
 10
63
 20
20
 11
98
 21
20
  0
LINE
  8
0
 10
98
 20
20
 11
98
 21
18
  0
LINE
  8
0
 10
98
 20
18
 11
63
 21
18
  0
LINE
  8
0
 10
63
 20
13
 11
63
 21
15
  0
LINE
  8
0
 10
63
 20
15
 11
98
 21
15
  0
LINE
  8
0
 10
98
 20
15
 11
98
 21
13
  0
LINE
  8
0
 10
98
 20
13
 11
63
 21
13
  0
LINE
  8
0
 10
63
 20
8
 11
63
 21
10
  0
LINE
  8
0
 10
63
 20
10
 11
98
 21
10
  0
LINE
  8
0
 10
98
 20
10
 11
98
 21
8
  0
LINE
  8
0
 10
98
 20
8
 11
63
 21
8
  0
ENDSEC
  0
SECTION
  2
OBJECTS
  0
DICTIONARY
  0
ENDSEC
  0
EOF
