  0
SECTION
  2
BLOCKS
  0
ENDSEC
  0
SECTION
  2
ENTITIES
  0
LINE
  8
0
 10
77.8182
 20
-70
 11
87.5035
 21
-70
  0
LINE
  8
0
 10
87.5035
 20
-70
 11
87.5035
 21
-73
  0
LINE
  8
0
 10
87.5035
 20
-73
 11
97.0909
 21
-73
  0
LINE
  8
0
 10
97.0909
 20
-73
 11
97.0909
 21
-70
  0
LINE
  8
0
 10
97.0909
 20
-70
 11
106.776
 21
-70
  0
LINE
  8
0
 10
106.776
 20
-70
 11
106.776
 21
-73
  0
LINE
  8
0
 10
106.776
 20
-73
 11
116.364
 21
-73
  0
LINE
  8
0
 10
116.364
 20
-73
 11
116.364
 21
-70
  0
LINE
  8
0
 10
116.364
 20
-70
 11
123
 21
-70
  0
LINE
  8
0
 10
123
 20
-70
 11
123
 21
-69.951
  0
LINE
  8
0
 10
123
 20
-69.951
 11
126
 21
-69.951
  0
LINE
  8
0
 10
126
 20
-69.951
 11
126
 21
-64.6
  0
LINE
  8
0
 10
126
 20
-64.6
 11
123
 21
-64.6
  0
LINE
  8
0
 10
123
 20
-64.6
 11
123
 21
-59.151
  0
LINE
  8
0
 10
123
 20
-59.151
 11
126
 21
-59.151
  0
LINE
  8
0
 10
126
 20
-59.151
 11
126
 21
-53.8
  0
LINE
  8
0
 10
126
 20
-53.8
 11
123
 21
-53.8
  0
LINE
  8
0
 10
123
 20
-53.8
 11
123
 21
-48.351
  0
LINE
  8
0
 10
123
 20
-48.351
 11
126
 21
-48.351
  0
LINE
  8
0
 10
126
 20
-48.351
 11
126
 21
-43
  0
LINE
  8
0
 10
126
 20
-43
 11
116.364
 21
-43
  0
LINE
  8
0
 10
116.364
 20
-43
 11
116.364
 21
-40
  0
LINE
  8
0
 10
116.364
 20
-40
 11
106.776
 21
-40
  0
LINE
  8
0
 10
106.776
 20
-40
 11
106.776
 21
-43
  0
LINE
  8
0
 10
106.776
 20
-43
 11
97.0909
 21
-43
  0
LINE
  8
0
 10
97.0909
 20
-43
 11
97.0909
 21
-40
  0
LINE
  8
0
 10
97.0909
 20
-40
 11
87.5035
 21
-40
  0
LINE
  8
0
 10
87.5035
 20
-40
 11
87.5035
 21
-43
  0
LINE
  8
0
 10
87.5035
 20
-43
 11
85.3364
 21
-43
  0
LINE
  8
0
 10
85.3364
 20
-43
 11
85.3364
 21
-44
  0
LINE
  8
0
 10
85.3364
 20
-44
 11
80.1364
 21
-44
  0
LINE
  8
0
 10
80.1364
 20
-44
 11
80.1364
 21
-43
  0
LINE
  8
0
 10
80.1364
 20
-43
 11
77.8182
 21
-43
  0
LINE
  8
0
 10
77.8182
 20
-43
 11
77.8182
 21
-40
  0
LINE
  8
0
 10
77.8182
 20
-40
 11
68.2308
 21
-40
  0
LINE
  8
0
 10
68.2308
 20
-40
 11
68.2308
 21
-43
  0
LINE
  8
0
 10
68.2308
 20
-43
 11
58.5455
 21
-43
  0
LINE
  8
0
 10
58.5455
 20
-43
 11
58.5455
 21
-40
  0
LINE
  8
0
 10
58.5455
 20
-40
 11
48.9581
 21
-40
  0
LINE
  8
0
 10
48.9581
 20
-40
 11
48.9581
 21
-43
  0
LINE
  8
0
 10
48.9581
 20
-43
 11
39.2727
 21
-43
  0
LINE
  8
0
 10
39.2727
 20
-43
 11
39.2727
 21
-40
  0
LINE
  8
0
 10
39.2727
 20
-40
 11
29.6854
 21
-40
  0
LINE
  8
0
 10
29.6854
 20
-40
 11
29.6854
 21
-43
  0
LINE
  8
0
 10
29.6854
 20
-43
 11
20
 21
-43
  0
LINE
  8
0
 10
20
 20
-43
 11
20
 21
-48.351
  0
LINE
  8
0
 10
20
 20
-48.351
 11
23
 21
-48.351
  0
LINE
  8
0
 10
23
 20
-48.351
 11
23
 21
-53.8
  0
LINE
  8
0
 10
23
 20
-53.8
 11
20
 21
-53.8
  0
LINE
  8
0
 10
20
 20
-53.8
 11
20
 21
-59.151
  0
LINE
  8
0
 10
20
 20
-59.151
 11
23
 21
-59.151
  0
LINE
  8
0
 10
23
 20
-59.151
 11
23
 21
-64.6
  0
LINE
  8
0
 10
23
 20
-64.6
 11
20
 21
-64.6
  0
LINE
  8
0
 10
20
 20
-64.6
 11
20
 21
-73
  0
LINE
  8
0
 10
20
 20
-73
 11
77.8182
 21
-73
  0
LINE
  8
0
 10
77.8182
 20
-73
 11
77.8182
 21
-70
  0
LINE
  8
0
 10
90.5
 20
-51
 11
90.5
 21
-49
  0
LINE
  8
0
 10
90.5
 20
-49
 11
114
 21
-49
  0
LINE
  8
0
 10
114
 20
-49
 11
114
 21
-51
  0
LINE
  8
0
 10
114
 20
-51
 11
90.5
 21
-51
  0
LINE
  8
0
 10
61
 20
-51
 11
61
 21
-49
  0
LINE
  8
0
 10
61
 20
-49
 11
84.5
 21
-49
  0
LINE
  8
0
 10
84.5
 20
-49
 11
84.5
 21
-51
  0
LINE
  8
0
 10
84.5
 20
-51
 11
61
 21
-51
  0
LINE
  8
0
 10
90.5
 20
-55
 11
90.5
 21
-53
  0
LINE
  8
0
 10
90.5
 20
-53
 11
114
 21
-53
  0
LINE
  8
0
 10
114
 20
-53
 11
114
 21
-55
  0
LINE
  8
0
 10
114
 20
-55
 11
90.5
 21
-55
  0
LINE
  8
0
 10
61
 20
-55
 11
61
 21
-53
  0
LINE
  8
0
 10
61
 20
-53
 11
84.5
 21
-53
  0
LINE
  8
0
 10
84.5
 20
-53
 11
84.5
 21
-55
  0
LINE
  8
0
 10
84.5
 20
-55
 11
61
 21
-55
  0
LINE
  8
0
 10
26.7
 20
-67.5
 11
26.7
 21
-53
  0
LINE
  8
0
 10
26.7
 20
-53
 11
39.2
 21
-53
  0
LINE
  8
0
 10
39.2
 20
-53
 11
39.2
 21
-60.5
  0
LINE
  8
0
 10
39.2
 20
-60.5
 11
53
 21
-60.5
  0
LINE
  8
0
 10
53
 20
-60.5
 11
53
 21
-67.5
  0
LINE
  8
0
 10
53
 20
-67.5
 11
26.7
 21
-67.5
  0
LINE
  8
0
 10
90.5
 20
-59
 11
90.5
 21
-57
  0
LINE
  8
0
 10
90.5
 20
-57
 11
114
 21
-57
  0
LINE
  8
0
 10
114
 20
-57
 11
114
 21
-59
  0
LINE
  8
0
 10
114
 20
-59
 11
90.5
 21
-59
  0
LINE
  8
0
 10
61
 20
-59
 11
61
 21
-57
  0
LINE
  8
0
 10
61
 20
-57
 11
84.5
 21
-57
  0
LINE
  8
0
 10
84.5
 20
-57
 11
84.5
 21
-59
  0
LINE
  8
0
 10
84.5
 20
-59
 11
61
 21
-59
  0
LINE
  8
0
 10
61
 20
-63
 11
61
 21
-61
  0
LINE
  8
0
 10
61
 20
-61
 11
84.5
 21
-61
  0
LINE
  8
0
 10
84.5
 20
-61
 11
84.5
 21
-63
  0
LINE
  8
0
 10
84.5
 20
-63
 11
61
 21
-63
  0
LINE
  8
0
 10
90.5
 20
-63
 11
90.5
 21
-61
  0
LINE
  8
0
 10
90.5
 20
-61
 11
114
 21
-61
  0
LINE
  8
0
 10
114
 20
-61
 11
114
 21
-63
  0
LINE
  8
0
 10
114
 20
-63
 11
90.5
 21
-63
  0
ENDSEC
  0
SECTION
  2
OBJECTS
  0
DICTIONARY
  0
ENDSEC
  0
EOF
