  0
SECTION
  2
BLOCKS
  0
ENDSEC
  0
SECTION
  2
ENTITIES
  0
LINE
  8
0
 10
13.751
 20
3
 11
19.2
 21
3
  0
LINE
  8
0
 10
19.2
 20
3
 11
19.2
 21
0
  0
LINE
  8
0
 10
19.2
 20
0
 11
24.551
 21
0
  0
LINE
  8
0
 10
24.551
 20
0
 11
24.551
 21
3
  0
LINE
  8
0
 10
24.551
 20
3
 11
30
 21
3
  0
LINE
  8
0
 10
30
 20
3
 11
30
 21
9.63635
  0
LINE
  8
0
 10
30
 20
9.63635
 11
33
 21
9.63635
  0
LINE
  8
0
 10
33
 20
9.63635
 11
33
 21
19.2237
  0
LINE
  8
0
 10
33
 20
19.2237
 11
30
 21
19.2237
  0
LINE
  8
0
 10
30
 20
19.2237
 11
30
 21
28.9091
  0
LINE
  8
0
 10
30
 20
28.9091
 11
33
 21
28.9091
  0
LINE
  8
0
 10
33
 20
28.9091
 11
33
 21
38.4964
  0
LINE
  8
0
 10
33
 20
38.4964
 11
30
 21
38.4964
  0
LINE
  8
0
 10
30
 20
38.4964
 11
30
 21
48.1818
  0
LINE
  8
0
 10
30
 20
48.1818
 11
33
 21
48.1818
  0
LINE
  8
0
 10
33
 20
48.1818
 11
33
 21
57.7692
  0
LINE
  8
0
 10
33
 20
57.7692
 11
30
 21
57.7692
  0
LINE
  8
0
 10
30
 20
57.7692
 11
30
 21
67.4545
  0
LINE
  8
0
 10
30
 20
67.4545
 11
33
 21
67.4545
  0
LINE
  8
0
 10
33
 20
67.4545
 11
33
 21
77.0419
  0
LINE
  8
0
 10
33
 20
77.0419
 11
30
 21
77.0419
  0
LINE
  8
0
 10
30
 20
77.0419
 11
30
 21
86.7273
  0
LINE
  8
0
 10
30
 20
86.7273
 11
33
 21
86.7273
  0
LINE
  8
0
 10
33
 20
86.7273
 11
33
 21
96.3146
  0
LINE
  8
0
 10
33
 20
96.3146
 11
30
 21
96.3146
  0
LINE
  8
0
 10
30
 20
96.3146
 11
30
 21
103
  0
LINE
  8
0
 10
30
 20
103
 11
24.551
 21
103
  0
LINE
  8
0
 10
24.551
 20
103
 11
24.551
 21
106
  0
LINE
  8
0
 10
24.551
 20
106
 11
19.2
 21
106
  0
LINE
  8
0
 10
19.2
 20
106
 11
19.2
 21
103
  0
LINE
  8
0
 10
19.2
 20
103
 11
13.751
 21
103
  0
LINE
  8
0
 10
13.751
 20
103
 11
13.751
 21
106
  0
LINE
  8
0
 10
13.751
 20
106
 11
8.39999
 21
106
  0
LINE
  8
0
 10
8.39999
 20
106
 11
8.39999
 21
103
  0
LINE
  8
0
 10
8.39999
 20
103
 11
3
 21
103
  0
LINE
  8
0
 10
3
 20
103
 11
3
 21
96.3146
  0
LINE
  8
0
 10
3
 20
96.3146
 11
0
 21
96.3146
  0
LINE
  8
0
 10
0
 20
96.3146
 11
0
 21
86.7273
  0
LINE
  8
0
 10
0
 20
86.7273
 11
3
 21
86.7273
  0
LINE
  8
0
 10
3
 20
86.7273
 11
3
 21
77.0419
  0
LINE
  8
0
 10
3
 20
77.0419
 11
0
 21
77.0419
  0
LINE
  8
0
 10
0
 20
77.0419
 11
0
 21
67.4545
  0
LINE
  8
0
 10
0
 20
67.4545
 11
3
 21
67.4545
  0
LINE
  8
0
 10
3
 20
67.4545
 11
3
 21
65.3364
  0
LINE
  8
0
 10
3
 20
65.3364
 11
4
 21
65.3364
  0
LINE
  8
0
 10
4
 20
65.3364
 11
4
 21
60.1364
  0
LINE
  8
0
 10
4
 20
60.1364
 11
3
 21
60.1364
  0
LINE
  8
0
 10
3
 20
60.1364
 11
3
 21
57.7692
  0
LINE
  8
0
 10
3
 20
57.7692
 11
0
 21
57.7692
  0
LINE
  8
0
 10
0
 20
57.7692
 11
0
 21
48.1818
  0
LINE
  8
0
 10
0
 20
48.1818
 11
3
 21
48.1818
  0
LINE
  8
0
 10
3
 20
48.1818
 11
3
 21
38.4964
  0
LINE
  8
0
 10
3
 20
38.4964
 11
0
 21
38.4964
  0
LINE
  8
0
 10
0
 20
38.4964
 11
0
 21
28.9091
  0
LINE
  8
0
 10
0
 20
28.9091
 11
3
 21
28.9091
  0
LINE
  8
0
 10
3
 20
28.9091
 11
3
 21
19.2237
  0
LINE
  8
0
 10
3
 20
19.2237
 11
0
 21
19.2237
  0
LINE
  8
0
 10
0
 20
19.2237
 11
0
 21
9.63635
  0
LINE
  8
0
 10
0
 20
9.63635
 11
3
 21
9.63635
  0
LINE
  8
0
 10
3
 20
9.63635
 11
3
 21
3
  0
LINE
  8
0
 10
3
 20
3
 11
8.39999
 21
3
  0
LINE
  8
0
 10
8.39999
 20
3
 11
8.39999
 21
0
  0
LINE
  8
0
 10
8.39999
 20
0
 11
13.751
 21
0
  0
LINE
  8
0
 10
13.751
 20
0
 11
13.751
 21
3
  0
LINE
  8
0
 10
5.5
 20
31.5
 11
5.5
 21
52.5
  0
LINE
  8
0
 10
5.5
 20
52.5
 11
26
 21
52.5
  0
LINE
  8
0
 10
26
 20
52.5
 11
26
 21
31.5
  0
LINE
  8
0
 10
26
 20
31.5
 11
5.5
 21
31.5
  0
LINE
  8
0
 10
5
 20
12
 11
5
 21
19.5
  0
LINE
  8
0
 10
5
 20
19.5
 11
22
 21
19.5
  0
LINE
  8
0
 10
22
 20
19.5
 11
22
 21
12
  0
LINE
  8
0
 10
22
 20
12
 11
5
 21
12
  0
ENDSEC
  0
SECTION
  2
OBJECTS
  0
DICTIONARY
  0
ENDSEC
  0
EOF
