  0
SECTION
  2
BLOCKS
  0
ENDSEC
  0
SECTION
  2
ENTITIES
  0
LINE
  8
0
 10
9.63635
 20
3
 11
19.3217
 21
3
  0
LINE
  8
0
 10
19.3217
 20
3
 11
19.3217
 21
0
  0
LINE
  8
0
 10
19.3217
 20
0
 11
28.9091
 21
0
  0
LINE
  8
0
 10
28.9091
 20
0
 11
28.9091
 21
3
  0
LINE
  8
0
 10
28.9091
 20
3
 11
38.5945
 21
3
  0
LINE
  8
0
 10
38.5945
 20
3
 11
38.5945
 21
0
  0
LINE
  8
0
 10
38.5945
 20
0
 11
48.1818
 21
0
  0
LINE
  8
0
 10
48.1818
 20
0
 11
48.1818
 21
3
  0
LINE
  8
0
 10
48.1818
 20
3
 11
57.8672
 21
3
  0
LINE
  8
0
 10
57.8672
 20
3
 11
57.8672
 21
0
  0
LINE
  8
0
 10
57.8672
 20
0
 11
67.4545
 21
0
  0
LINE
  8
0
 10
67.4545
 20
0
 11
67.4545
 21
3
  0
LINE
  8
0
 10
67.4545
 20
3
 11
77.1399
 21
3
  0
LINE
  8
0
 10
77.1399
 20
3
 11
77.1399
 21
0
  0
LINE
  8
0
 10
77.1399
 20
0
 11
86.7273
 21
0
  0
LINE
  8
0
 10
86.7273
 20
0
 11
86.7273
 21
3
  0
LINE
  8
0
 10
86.7273
 20
3
 11
96.4126
 21
3
  0
LINE
  8
0
 10
96.4126
 20
3
 11
96.4126
 21
0
  0
LINE
  8
0
 10
96.4126
 20
0
 11
106
 21
0
  0
LINE
  8
0
 10
106
 20
0
 11
106
 21
9.58736
  0
LINE
  8
0
 10
106
 20
9.58736
 11
103
 21
9.58736
  0
LINE
  8
0
 10
103
 20
9.58736
 11
103
 21
19.2727
  0
LINE
  8
0
 10
103
 20
19.2727
 11
106
 21
19.2727
  0
LINE
  8
0
 10
106
 20
19.2727
 11
106
 21
28.8601
  0
LINE
  8
0
 10
106
 20
28.8601
 11
103
 21
28.8601
  0
LINE
  8
0
 10
103
 20
28.8601
 11
103
 21
38.5455
  0
LINE
  8
0
 10
103
 20
38.5455
 11
106
 21
38.5455
  0
LINE
  8
0
 10
106
 20
38.5455
 11
106
 21
48.1328
  0
LINE
  8
0
 10
106
 20
48.1328
 11
103
 21
48.1328
  0
LINE
  8
0
 10
103
 20
48.1328
 11
103
 21
57.8182
  0
LINE
  8
0
 10
103
 20
57.8182
 11
106
 21
57.8182
  0
LINE
  8
0
 10
106
 20
57.8182
 11
106
 21
67.4055
  0
LINE
  8
0
 10
106
 20
67.4055
 11
103
 21
67.4055
  0
LINE
  8
0
 10
103
 20
67.4055
 11
103
 21
77.0909
  0
LINE
  8
0
 10
103
 20
77.0909
 11
106
 21
77.0909
  0
LINE
  8
0
 10
106
 20
77.0909
 11
106
 21
86.6783
  0
LINE
  8
0
 10
106
 20
86.6783
 11
103
 21
86.6783
  0
LINE
  8
0
 10
103
 20
86.6783
 11
103
 21
96.3636
  0
LINE
  8
0
 10
103
 20
96.3636
 11
106
 21
96.3636
  0
LINE
  8
0
 10
106
 20
96.3636
 11
106
 21
106
  0
LINE
  8
0
 10
106
 20
106
 11
96.4126
 21
106
  0
LINE
  8
0
 10
96.4126
 20
106
 11
96.4126
 21
103
  0
LINE
  8
0
 10
96.4126
 20
103
 11
86.7273
 21
103
  0
LINE
  8
0
 10
86.7273
 20
103
 11
86.7273
 21
106
  0
LINE
  8
0
 10
86.7273
 20
106
 11
77.1399
 21
106
  0
LINE
  8
0
 10
77.1399
 20
106
 11
77.1399
 21
103
  0
LINE
  8
0
 10
77.1399
 20
103
 11
67.4545
 21
103
  0
LINE
  8
0
 10
67.4545
 20
103
 11
67.4545
 21
106
  0
LINE
  8
0
 10
67.4545
 20
106
 11
57.8672
 21
106
  0
LINE
  8
0
 10
57.8672
 20
106
 11
57.8672
 21
103
  0
LINE
  8
0
 10
57.8672
 20
103
 11
56.9
 21
103
  0
LINE
  8
0
 10
56.9
 20
103
 11
56.9
 21
31.1
  0
LINE
  8
0
 10
56.9
 20
31.1
 11
3
 21
31.1
  0
LINE
  8
0
 10
3
 20
31.1
 11
3
 21
28.8601
  0
LINE
  8
0
 10
3
 20
28.8601
 11
0
 21
28.8601
  0
LINE
  8
0
 10
0
 20
28.8601
 11
0
 21
19.2727
  0
LINE
  8
0
 10
0
 20
19.2727
 11
3
 21
19.2727
  0
LINE
  8
0
 10
3
 20
19.2727
 11
3
 21
9.58736
  0
LINE
  8
0
 10
3
 20
9.58736
 11
0
 21
9.58736
  0
LINE
  8
0
 10
0
 20
9.58736
 11
0
 21
0
  0
LINE
  8
0
 10
0
 20
0
 11
9.63635
 21
0
  0
LINE
  8
0
 10
9.63635
 20
0
 11
9.63635
 21
3
  0
ENDSEC
  0
SECTION
  2
OBJECTS
  0
DICTIONARY
  0
ENDSEC
  0
EOF
